<?xml version="1.0" encoding="UTF-8"?>
<svg xmlns="http://www.w3.org/2000/svg" xmlns:xlink="http://www.w3.org/1999/xlink" viewBox="0 0 48 48">
  <defs>
    <style>
      .cls-1 {
        fill: url(#radial-gradient-4);
      }

      .cls-1, .cls-2, .cls-3, .cls-4, .cls-5, .cls-6, .cls-7 {
        stroke: #000;
        stroke-miterlimit: 10;
      }

      .cls-8 {
        fill: url(#radial-gradient-10);
      }

      .cls-9 {
        fill: #945700;
      }

      .cls-10 {
        fill: url(#radial-gradient-8);
      }

      .cls-11 {
        fill: url(#radial-gradient-12);
      }

      .cls-2 {
        fill: url(#radial-gradient);
      }

      .cls-12 {
        fill: url(#radial-gradient-13);
      }

      .cls-3 {
        fill: url(#radial-gradient-3);
      }

      .cls-4 {
        fill: url(#radial-gradient-5);
      }

      .cls-5 {
        fill: url(#radial-gradient-6);
      }

      .cls-13 {
        fill: url(#radial-gradient-11);
      }

      .cls-14 {
        fill: url(#radial-gradient-9);
      }

      .cls-6 {
        fill: url(#radial-gradient-2);
      }

      .cls-7 {
        fill: url(#radial-gradient-7);
      }
    </style>
    <radialGradient id="radial-gradient" cx="15.28" cy="9.76" fx="15.28" fy="9.76" r="5.9" gradientUnits="userSpaceOnUse">
      <stop offset=".55" stop-color="#fff"/>
      <stop offset="1" stop-color="#000"/>
    </radialGradient>
    <radialGradient id="radial-gradient-2" cx="32.21" cy="9.31" fx="32.21" fy="9.31" r="5.71" xlink:href="#radial-gradient"/>
    <radialGradient id="radial-gradient-3" cx="40.02" cy="21.59" fx="40.02" fy="21.59" r="6.14" xlink:href="#radial-gradient"/>
    <radialGradient id="radial-gradient-4" cx="34.07" cy="35.47" fx="34.07" fy="35.47" r="6.32" xlink:href="#radial-gradient"/>
    <radialGradient id="radial-gradient-5" cx="16.76" cy="37.86" fx="16.76" fy="37.86" r="6.14" xlink:href="#radial-gradient"/>
    <radialGradient id="radial-gradient-6" cx="7.19" cy="26.83" fx="7.19" fy="26.83" r="5.56" xlink:href="#radial-gradient"/>
    <radialGradient id="radial-gradient-7" cx="23.67" cy="22.72" fx="23.67" fy="22.72" r="8.23" gradientUnits="userSpaceOnUse">
      <stop offset=".7" stop-color="#fff"/>
      <stop offset="1" stop-color="#000"/>
    </radialGradient>
    <radialGradient id="radial-gradient-8" cx="9.17" cy="16.04" fx="9.17" fy="16.04" r="5.04" xlink:href="#radial-gradient-7"/>
    <radialGradient id="radial-gradient-9" cx="23.18" cy="6.85" fx="23.18" fy="6.85" r="4.49" xlink:href="#radial-gradient-7"/>
    <radialGradient id="radial-gradient-10" cx="36.96" cy="13.62" fx="36.96" fy="13.62" r="4.71" xlink:href="#radial-gradient-7"/>
    <radialGradient id="radial-gradient-11" cx="39.23" cy="29.06" fx="39.23" fy="29.06" r="5.15" xlink:href="#radial-gradient-7"/>
    <radialGradient id="radial-gradient-12" cx="27.34" cy="37.9" fx="27.34" fy="37.9" r="4.97" xlink:href="#radial-gradient-7"/>
    <radialGradient id="radial-gradient-13" cx="12.34" cy="34.09" fx="12.34" fy="34.09" r="4.6" xlink:href="#radial-gradient-7"/>
  </defs>
  <g id="Layer_2" data-name="Layer 2">
    <path class="cls-2" d="m20.85,13.19c1.68-3.13-1.56-8.88-5.79-9.19-2.2-.16-4.73,1.14-5.53,3.23-1.27,3.32,2.09,7.81,5.96,8.26,1.9.22,4.39-.49,5.36-2.3Z"/>
    <path class="cls-6" d="m31.91,15.49c3.49-.11,6.96-6.18,4.85-9.79-1.05-1.79-3.45-2.94-5.53-2.47-3.39.77-5.2,5.69-3.66,9.02.72,1.56,2.43,3.3,4.34,3.23Z"/>
    <path class="cls-3" d="m34.13,25.19c2.16,3.19,9.93,2.8,11.91-1.28,1.03-2.1.47-5.09-1.36-6.72-2.78-2.48-7.83-1.23-9.96,1.87-1.13,1.65-1.8,4.35-.6,6.13Z"/>
    <path class="cls-1" d="m27.91,32.26c-1.56,3.51,2.47,9.32,6.98,9.36,2.13.02,4.55-1.25,5.36-3.32,1.38-3.5-2.15-8.52-6.38-8.94-2.24-.22-5.03.81-5.96,2.89Z"/>
    <path class="cls-4" d="m17.28,31.23c-3.66.02-7.39,5.49-5.7,9.53.96,2.3,3.65,4.07,6.04,3.66,3.77-.66,6-6.65,4-10.3-.78-1.42-2.43-2.9-4.34-2.89Z"/>
    <path class="cls-5" d="m12,22.98c-2.32-2.72-8.58-1.52-10.13,1.79-.61,1.29-.56,3.05.09,4.51.18.4.71,1.6,1.87,2.3,2.5,1.51,6.99.16,8.51-3.06.75-1.59.96-4.01-.34-5.53Z"/>
    <path class="cls-7" d="m16.77,18.3c-.33.46-2.14,3.01-1.36,6.21.7,2.9,3.04,4.32,3.91,4.85.59.36,2.78,1.64,5.7,1.28,2.03-.25,3.38-1.17,3.66-1.36,2.94-2.04,3.37-5.39,3.4-5.7.32-2.81-.89-5.72-3.23-7.4-2.65-1.9-5.58-1.41-6.38-1.28-.83.14-3.77.68-5.7,3.4Z"/>
  </g>
  <g id="Layer_4" data-name="Layer 4">
    <g>
      <path class="cls-10" d="m15.95,18.24c-1.88-1.49-3.62-2.43-4.89-3-1.94-.88-3.33-1.5-5.19-1.37-1.55.11-2.75.68-3.49,1.12"/>
      <path class="cls-9" d="m15.95,18.24c-1.95-1.53-4.22-2.59-6.57-3.34-1.18-.36-2.43-.21-3.4.26-.82.39-1.54.84-2.31,1.27-.04.05-.13,0-.29-.15-.19-.18-.58-.67-.74-.88,0,0-.51-.86-.51-.86l-.25-.69c-.03-.17-.2-.76.03-.79,2.48-1.4,5.68-.18,7.75,1.14,2.24,1.11,4.37,2.43,6.3,4.03h0Z"/>
    </g>
    <g>
      <path class="cls-14" d="m24.43,12.85c1.29-3.28.88-4.95.26-5.87-.86-1.27-2.34-1.42-3.15-3.06-.55-1.13-.47-2.3-.34-3.06"/>
      <path class="cls-9" d="m24.25,12.78c.87-1.9,1.64-4.67-.15-6.25-.83-.72-2.04-.96-3.03-2.01-1-.99-1.65-2.44-2.24-4.08l4.72.83c-1.53.87-1.76,2.74-.54,3.9.39.39.87.75,1.29,1.16.89.83,1.15,2.1,1.06,3.24-.07,1.16-.41,2.27-.75,3.37l-.35-.14h0Z"/>
    </g>
    <g>
      <path class="cls-8" d="m32.21,18.3c3.11-.61,4.48-1.86,5.15-2.89.79-1.23.74-2.35,1.91-4.04.82-1.19,1.77-1.96,2.43-2.43"/>
      <path class="cls-9" d="m32.2,18.22c2.13-.39,4.52-1.67,5-3.9.35-2.46,1.47-5.18,3.16-7.3,0,0,2.69,3.83,2.69,3.83-1.02.13-1.96.6-2.76,1.27-.81.67-1.3,1.56-1.91,2.71-.64,1.15-1.68,2.01-2.77,2.51-1.09.53-2.25.79-3.39,1.03,0,0-.03-.15-.03-.15h0Z"/>
    </g>
    <g>
      <path class="cls-13" d="m32.43,26.47c1.52,1.8,2.99,2.52,4.05,2.85,2.65.84,4.66-.18,7.61,1.15.89.4,1.56.87,1.96,1.19"/>
      <path class="cls-9" d="m32.81,26.15c-.3.45-.16.55-.05.66,1.58,1.71,3.92,2.53,6.21,2.24,2.55-.4,5.68-.1,7.93,1.53,0,0-1.72,2.17-1.72,2.17-.76-.76-1.7-1.39-2.73-1.76-1.03-.4-2.22-.48-3.52-.64-2.48-.22-4.67-1.62-6.22-3.51-.1-.13-.17-.27-.67-.05l.76-.65h0Z"/>
    </g>
    <g>
      <path class="cls-11" d="m26.55,31.06c-.4,1.12-.87,2.87-.81,5.05.02.83.08,2.58.9,4.58.81,1.98,2.3,4.04,2.3,4.04h0"/>
      <path class="cls-9" d="m26.55,31.06c-.7,2.28-.64,4.78,0,7.04.5,2.01,2.15,3.33,3.25,4.99.35.58.53.35-.46,1.35,0,0-.81.59-.81.59-.93.46-1.16.42-1.21.26-2.63-4.16-2.57-9.78-.77-14.22h0Z"/>
    </g>
    <g>
      <path class="cls-12" d="m17.36,29.96c-2.09.16-3.62.8-4.5,1.25-1.42.73-2.31,1.19-2.85,2.21-.73,1.38-.14,2.49-1.07,3.68-.5.63-1.16.94-1.62,1.11"/>
      <path class="cls-9" d="m17.36,29.96c-1.79.17-3.43.89-4.86,1.94-.84.6-1.78,1.29-1.6,2.39.19.76.68,2,.32,3.07-.36,1.33-1.4,2.39-2.66,2.86-.23.13-.36-.22-.59-.6-.21-.33-.49-1.04-.65-1.4,0,0-.44-1.48-.44-1.48-.12-.38-.17-.57-.2-.68-.03-.1,0-.07.06-.12.11-.08.26-.17.37-.21.15-.09.31.07.6-.32.26-.37.53-1.2.99-1.88,1.94-2.68,5.62-3.28,8.67-3.57h0Z"/>
    </g>
  </g>
</svg>